<mxfile host="app.diagrams.net" modified="2023-11-26T22:01:29.560Z" agent="Mozilla/5.0 (Windows NT 10.0; Win64; x64) AppleWebKit/537.36 (KHTML, like Gecko) Chrome/119.0.0.0 Safari/537.36" version="21.8.1" etag="Qmm4FxQtL686-HEtt5_o" type="github">
  <diagram name="Page-1" id="d6SmCK_-FqE97ZsFcftz">
    <mxGraphModel>
      <root>
        <mxCell id="0" />
        <mxCell id="1" parent="0" />
      </root>
    </mxGraphModel>
  </diagram>
</mxfile>
